# xmcd CD database file
#
# Track frame offsets:
#	183
#	22033
#	45800
#	64450
#	78395
#	100343
#	130400
#	164820
#	194740
#	225638
#	242628
#	262105
#
# Disc length: 3839 seconds
#
# Revision: 17
# Processed by: cddbd v1.5.2PL0 Copyright (c) Steve Scherf et al.
# Submitted via: CDex 1.79
#
DISCID=ad0efd0c
DTITLE=Moody Blues - Greatest Hits
DYEAR=1989
DGENRE=Progressive Rock
TTITLE0=Your Wildest Dreams
TTITLE1=The Voice
TTITLE2=Gemini Dream
TTITLE3=The Story in Your Eyes
TTITLE4=Tuesday Afternoon
TTITLE5=Isn't Life Strange
TTITLE6=Nights in White Satin
TTITLE7=I Know You're Out There Somewhere
TTITLE8=The Other Side of Life
TTITLE9=Ride My See-Saw
TTITLE10=I'm Just a Singer (in a Rock and Roll Band)
TTITLE11=Question
EXTD=YEAR: 1989
EXTT0=
EXTT1=
EXTT2=
EXTT3=
EXTT4=
EXTT5=
EXTT6=
EXTT7=
EXTT8=
EXTT9=
EXTT10=
EXTT11=
PLAYORDER=
